<svg width="38" height="38" viewBox="0 0 38 38" fill="none" xmlns="http://www.w3.org/2000/svg">
<path d="M34.8333 19H25.3333L22.1667 23.75H15.8333L12.6667 19H3.16667" stroke="white" stroke-width="3.75" stroke-linecap="round" stroke-linejoin="round"/>
<path d="M8.62917 8.09083L3.16667 19V28.5C3.16667 29.3398 3.5003 30.1453 4.09416 30.7392C4.68803 31.333 5.49348 31.6667 6.33333 31.6667H31.6667C32.5065 31.6667 33.312 31.333 33.9058 30.7392C34.4997 30.1453 34.8333 29.3398 34.8333 28.5V19L29.3708 8.09083C29.1087 7.56324 28.7045 7.11925 28.2038 6.80877C27.7032 6.49829 27.1258 6.33364 26.5367 6.33333H11.4633C10.8742 6.33364 10.2968 6.49829 9.79615 6.80877C9.29547 7.11925 8.89133 7.56324 8.62917 8.09083V8.09083Z" stroke="white" stroke-width="3.75" stroke-linecap="round" stroke-linejoin="round"/>
</svg>
