<svg width="108" height="34" viewBox="0 0 108 34" fill="none" xmlns="http://www.w3.org/2000/svg">
<rect width="108" height="34" rx="5" fill="#D89300"/>
<path d="M28.5027 24.1271C28.3161 24.1271 28.0827 24.0804 27.8027 23.9871C27.5361 23.9071 27.2961 23.7538 27.0827 23.5271C26.8827 23.3004 26.7827 22.9671 26.7827 22.5271C26.7827 22.1404 26.8627 21.6338 27.0227 21.0071C27.1961 20.3804 27.4094 19.6804 27.6627 18.9071C27.9161 18.1204 28.1694 17.3004 28.4227 16.4471C28.6761 15.5804 28.8827 14.7138 29.0427 13.8471C29.2161 12.9804 29.3027 12.1471 29.3027 11.3471C29.3027 10.8538 29.2827 10.3938 29.2427 9.96708C29.2161 9.54042 29.1161 9.20042 28.9427 8.94708C28.7827 8.68042 28.5027 8.54708 28.1027 8.54708C27.7294 8.54708 27.4094 8.66042 27.1427 8.88708C26.8894 9.10042 26.6761 9.38042 26.5027 9.72708C26.3427 10.0738 26.2227 10.4404 26.1427 10.8271C26.0761 11.2138 26.0427 11.5738 26.0427 11.9071C26.0427 12.1204 26.0561 12.3204 26.0827 12.5071C26.1227 12.6804 26.1694 12.8404 26.2227 12.9871C25.7027 12.9871 25.3361 12.8471 25.1227 12.5671C24.9094 12.2738 24.8027 11.9338 24.8027 11.5471C24.8027 11.1338 24.8961 10.7204 25.0827 10.3071C25.2827 9.89375 25.5494 9.51375 25.8827 9.16708C26.2294 8.80708 26.6227 8.52042 27.0627 8.30708C27.5027 8.09375 27.9694 7.98708 28.4627 7.98708C29.2894 7.98708 29.9027 8.31375 30.3027 8.96708C30.7161 9.60708 30.9227 10.4671 30.9227 11.5471C30.9227 12.3204 30.8361 13.1338 30.6627 13.9871C30.4894 14.8271 30.2761 15.6671 30.0227 16.5071C29.7694 17.3471 29.5094 18.1538 29.2427 18.9271C28.9894 19.7004 28.7761 20.4138 28.6027 21.0671C28.4294 21.7204 28.3427 22.2738 28.3427 22.7271C28.3427 22.9538 28.3761 23.1404 28.4427 23.2871C28.5227 23.4338 28.6761 23.5071 28.9027 23.5071C29.2761 23.5071 29.7094 23.3138 30.2027 22.9271C30.6961 22.5538 31.2027 22.0404 31.7227 21.3871C32.2561 20.7204 32.7694 19.9738 33.2627 19.1471C33.7694 18.3204 34.2227 17.4604 34.6227 16.5671C35.0227 15.6604 35.3427 14.7738 35.5827 13.9071C35.8227 13.0404 35.9427 12.2404 35.9427 11.5071C35.9427 10.8404 35.8427 10.3538 35.6427 10.0471C35.4427 9.72708 35.1761 9.52042 34.8427 9.42708C35.0294 9.10708 35.2227 8.87375 35.4227 8.72708C35.6361 8.58042 35.8294 8.50708 36.0027 8.50708C36.2827 8.50708 36.5561 8.68708 36.8227 9.04708C37.0894 9.40708 37.2227 9.96708 37.2227 10.7271C37.2227 11.4604 37.0827 12.2938 36.8027 13.2271C36.5361 14.1604 36.1694 15.1338 35.7027 16.1471C35.2361 17.1471 34.7027 18.1204 34.1027 19.0671C33.5027 20.0138 32.8761 20.8671 32.2227 21.6271C31.5694 22.3871 30.9227 22.9938 30.2827 23.4471C29.6427 23.9004 29.0494 24.1271 28.5027 24.1271ZM38.5135 23.2671C37.7002 23.2671 37.0868 23.0404 36.6735 22.5871C36.2735 22.1471 36.0735 21.6004 36.0735 20.9471C36.0735 20.3471 36.2202 19.7138 36.5135 19.0471C36.8202 18.3804 37.2202 17.7538 37.7135 17.1671C38.2202 16.5804 38.7735 16.1071 39.3735 15.7471C39.9735 15.3738 40.5668 15.1871 41.1535 15.1871C41.4602 15.1871 41.7402 15.2671 41.9935 15.4271C42.2602 15.5871 42.3935 15.9138 42.3935 16.4071C42.3935 16.9138 42.2402 17.3938 41.9335 17.8471C41.6402 18.2871 41.2468 18.6804 40.7535 19.0271C40.2735 19.3738 39.7402 19.6604 39.1535 19.8871C38.5802 20.1004 38.0068 20.2338 37.4335 20.2871C37.4068 20.4204 37.3868 20.5471 37.3735 20.6671C37.3602 20.7871 37.3535 20.9004 37.3535 21.0071C37.3535 21.2071 37.3735 21.4071 37.4135 21.6071C37.4668 21.8071 37.5535 21.9938 37.6735 22.1671C37.7935 22.3271 37.9535 22.4538 38.1535 22.5471C38.3668 22.6404 38.6268 22.6871 38.9335 22.6871C39.5068 22.6871 40.0735 22.5271 40.6335 22.2071C41.1935 21.8738 41.7135 21.4404 42.1935 20.9071C42.6735 20.3738 43.0802 19.7871 43.4135 19.1471L43.6535 19.3271C43.2935 20.1271 42.8335 20.8204 42.2735 21.4071C41.7268 21.9938 41.1268 22.4471 40.4735 22.7671C39.8335 23.1004 39.1802 23.2671 38.5135 23.2671ZM37.5335 19.9071C37.8935 19.7871 38.3002 19.6138 38.7535 19.3871C39.2068 19.1471 39.6402 18.8671 40.0535 18.5471C40.4802 18.2271 40.8268 17.8738 41.0935 17.4871C41.3735 17.1004 41.5135 16.6938 41.5135 16.2671C41.5135 16.1204 41.4868 16.0071 41.4335 15.9271C41.3802 15.8471 41.2668 15.8071 41.0935 15.8071C40.7735 15.8071 40.4335 15.9338 40.0735 16.1871C39.7135 16.4271 39.3668 16.7471 39.0335 17.1471C38.7002 17.5471 38.4002 17.9871 38.1335 18.4671C37.8668 18.9471 37.6668 19.4271 37.5335 19.9071ZM46.4737 22.9071C46.0203 22.9071 45.6603 22.7871 45.3937 22.5471C45.1403 22.3071 45.0137 21.9938 45.0137 21.6071C45.0137 21.2071 45.107 20.7871 45.2937 20.3471C45.4803 19.9071 45.6603 19.4738 45.8337 19.0471C46.0203 18.6071 46.1137 18.2138 46.1137 17.8671C46.1137 17.4404 45.987 17.1271 45.7337 16.9271C45.4937 16.7138 45.247 16.5204 44.9937 16.3471C44.687 17.1338 44.367 17.8804 44.0337 18.5871C43.7003 19.2938 43.427 19.8271 43.2137 20.1871L43.0337 19.8471C43.2203 19.5004 43.4603 18.9938 43.7537 18.3271C44.0603 17.6604 44.3603 16.9004 44.6537 16.0471C44.5203 15.9138 44.4537 15.7538 44.4537 15.5671C44.4537 15.1671 44.567 14.8404 44.7937 14.5871C45.0203 14.3338 45.187 14.2071 45.2937 14.2071C45.4403 14.2071 45.5203 14.2738 45.5337 14.4071C45.5603 14.5271 45.5737 14.6204 45.5737 14.6871C45.5737 14.7538 45.5337 14.8871 45.4537 15.0871C45.387 15.2738 45.3537 15.3871 45.3537 15.4271C45.3537 15.6138 45.4537 15.7871 45.6537 15.9471C45.867 16.0938 46.107 16.2671 46.3737 16.4671C46.6403 16.6538 46.8737 16.8871 47.0737 17.1671C47.287 17.4338 47.3937 17.7804 47.3937 18.2071C47.3937 18.6071 47.307 19.0138 47.1337 19.4271C46.9737 19.8404 46.807 20.2338 46.6337 20.6071C46.4737 20.9804 46.3937 21.3071 46.3937 21.5871C46.3937 21.8271 46.4537 21.9871 46.5737 22.0671C46.6937 22.1471 46.8337 22.1871 46.9937 22.1871C47.3137 22.1871 47.6403 22.0871 47.9737 21.8871C48.3203 21.6871 48.6537 21.4338 48.9737 21.1271C49.2937 20.8204 49.5803 20.5004 49.8337 20.1671C50.087 19.8204 50.2737 19.5004 50.3937 19.2071L50.6537 19.4071C50.4003 19.9671 50.0537 20.5204 49.6137 21.0671C49.1737 21.6004 48.6803 22.0404 48.1337 22.3871C47.6003 22.7338 47.047 22.9071 46.4737 22.9071ZM65.2421 23.0071C64.7754 23.0071 64.4354 22.8604 64.2221 22.5671C64.0088 22.2871 63.9021 21.9471 63.9021 21.5471C63.9021 21.2138 63.9488 20.8804 64.0421 20.5471C64.1488 20.2138 64.2488 19.8871 64.3421 19.5671C64.4488 19.2471 64.5021 18.9604 64.5021 18.7071C64.5021 18.4404 64.4421 18.2538 64.3221 18.1471C64.2021 18.0404 64.0688 17.9871 63.9221 17.9871C63.5888 17.9871 63.2221 18.2471 62.8221 18.7671C62.4354 19.2871 61.9288 20.0204 61.3021 20.9671C61.0888 21.2871 60.9088 21.6138 60.7621 21.9471C60.6154 22.2671 60.4754 22.5604 60.3421 22.8271C60.2354 22.8271 60.1021 22.8138 59.9421 22.7871C59.7821 22.7604 59.6354 22.7138 59.5021 22.6471C59.3821 22.5938 59.3221 22.5204 59.3221 22.4271C59.3221 22.3338 59.3821 22.1138 59.5021 21.7671C59.6354 21.4071 59.7821 20.9938 59.9421 20.5271C60.1154 20.0471 60.2621 19.5671 60.3821 19.0871C60.5154 18.5938 60.5821 18.1738 60.5821 17.8271C60.5821 17.6004 60.5421 17.4204 60.4621 17.2871C60.3954 17.1404 60.2688 17.0671 60.0821 17.0671C59.7888 17.0671 59.4354 17.2471 59.0221 17.6071C58.6088 17.9538 58.1821 18.4138 57.7421 18.9871C57.3021 19.5604 56.8821 20.1938 56.4821 20.8871C56.0954 21.5671 55.7821 22.2471 55.5421 22.9271C55.4221 22.9271 55.2754 22.9071 55.1021 22.8671C54.9288 22.8271 54.7821 22.7738 54.6621 22.7071C54.5288 22.6404 54.4621 22.5738 54.4621 22.5071C54.4621 22.4271 54.5354 22.1938 54.6821 21.8071C54.8154 21.4071 54.9754 20.9338 55.1621 20.3871C55.3354 19.8271 55.4888 19.2604 55.6221 18.6871C55.7688 18.1138 55.8421 17.6071 55.8421 17.1671C55.9221 17.0738 56.0488 16.9804 56.2221 16.8871C56.3954 16.7938 56.5754 16.7471 56.7621 16.7471C56.9488 16.7471 57.0821 16.7938 57.1621 16.8871C57.2554 16.9804 57.3021 17.1071 57.3021 17.2671C57.3021 17.4404 57.2488 17.7404 57.1421 18.1671C57.0488 18.5804 56.9288 19.0404 56.7821 19.5471C57.0488 19.1204 57.3488 18.6871 57.6821 18.2471C58.0288 17.7938 58.3888 17.3804 58.7621 17.0071C59.1354 16.6338 59.5088 16.3338 59.8821 16.1071C60.2688 15.8671 60.6421 15.7471 61.0021 15.7471C61.4154 15.7471 61.6954 15.9004 61.8421 16.2071C62.0021 16.5004 62.0821 16.8538 62.0821 17.2671C62.0821 17.6004 62.0421 17.9538 61.9621 18.3271C61.8954 18.6871 61.8154 19.0271 61.7221 19.3471C61.6288 19.6538 61.5421 19.9004 61.4621 20.0871C61.7421 19.5804 62.0488 19.0938 62.3821 18.6271C62.7288 18.1471 63.1021 17.7604 63.5021 17.4671C63.9021 17.1604 64.3288 17.0071 64.7821 17.0071C65.2088 17.0071 65.5021 17.1338 65.6621 17.3871C65.8354 17.6404 65.9221 17.9404 65.9221 18.2871C65.9221 18.6338 65.8621 19.0138 65.7421 19.4271C65.6221 19.8404 65.4954 20.2404 65.3621 20.6271C65.2421 21.0138 65.1821 21.3471 65.1821 21.6271C65.1821 21.8004 65.2221 21.9604 65.3021 22.1071C65.3954 22.2404 65.5554 22.3071 65.7821 22.3071C66.1554 22.3071 66.5021 22.1404 66.8221 21.8071C67.1554 21.4604 67.4621 21.0471 67.7421 20.5671C68.0221 20.0738 68.2621 19.6004 68.4621 19.1471L68.7021 19.4271C68.4888 19.9871 68.2154 20.5471 67.8821 21.1071C67.5488 21.6538 67.1554 22.1071 66.7021 22.4671C66.2621 22.8271 65.7754 23.0071 65.2421 23.0071ZM69.0518 23.3271C68.6385 23.3271 68.2918 23.1871 68.0118 22.9071C67.7185 22.6404 67.5718 22.2271 67.5718 21.6671C67.5718 21.1871 67.6785 20.6738 67.8918 20.1271C68.1051 19.5671 68.3985 19.0204 68.7718 18.4871C69.1451 17.9404 69.5651 17.4471 70.0318 17.0071C70.5118 16.5538 71.0118 16.1938 71.5318 15.9271C72.0651 15.6604 72.5918 15.5271 73.1118 15.5271C73.6318 15.5271 74.0651 15.6671 74.4118 15.9471C74.7585 16.2138 74.9318 16.5738 74.9318 17.0271C74.9318 17.3604 74.8385 17.5871 74.6518 17.7071C74.4785 17.8271 74.2451 17.8871 73.9518 17.8871C73.9785 17.7804 73.9985 17.6671 74.0118 17.5471C74.0385 17.4138 74.0518 17.2938 74.0518 17.1871C74.0518 16.8804 73.9785 16.6204 73.8318 16.4071C73.6851 16.1804 73.4318 16.0671 73.0718 16.0671C72.6985 16.0671 72.3185 16.2004 71.9318 16.4671C71.5451 16.7204 71.1718 17.0671 70.8118 17.5071C70.4518 17.9338 70.1318 18.4004 69.8518 18.9071C69.5718 19.4138 69.3518 19.9138 69.1918 20.4071C69.0318 20.9004 68.9518 21.3404 68.9518 21.7271C68.9518 22.2471 69.1318 22.5071 69.4918 22.5071C69.7985 22.5071 70.1318 22.3671 70.4918 22.0871C70.8518 21.7938 71.2185 21.4271 71.5918 20.9871C71.9785 20.5338 72.3451 20.0671 72.6918 19.5871C73.0385 19.1071 73.3451 18.6671 73.6118 18.2671C73.6651 18.1871 73.6985 18.1471 73.7118 18.1471C73.7918 18.1604 73.8918 18.1871 74.0118 18.2271C74.1451 18.2671 74.2585 18.3204 74.3518 18.3871C74.4451 18.4538 74.4918 18.5404 74.4918 18.6471C74.4918 18.7671 74.4318 18.9338 74.3118 19.1471C74.1918 19.3471 74.0585 19.5804 73.9118 19.8471C73.7651 20.1138 73.6318 20.3871 73.5118 20.6671C73.3918 20.9338 73.3318 21.1871 73.3318 21.4271C73.3318 21.6271 73.3851 21.8271 73.4918 22.0271C73.5985 22.2138 73.7718 22.3071 74.0118 22.3071C74.3718 22.3071 74.8451 22.0471 75.4318 21.5271C76.0185 20.9938 76.6118 20.2004 77.2118 19.1471L77.4118 19.3471C77.1318 20.0671 76.7718 20.7004 76.3318 21.2471C75.8918 21.7938 75.4185 22.2204 74.9118 22.5271C74.4185 22.8338 73.9318 22.9871 73.4518 22.9871C72.9585 22.9871 72.5918 22.8404 72.3518 22.5471C72.1251 22.2538 72.0118 21.9338 72.0118 21.5871C72.0118 21.5071 72.0185 21.4204 72.0318 21.3271C72.0451 21.2204 72.0585 21.1138 72.0718 21.0071C71.4985 21.7804 70.9718 22.3604 70.4918 22.7471C70.0251 23.1338 69.5451 23.3271 69.0518 23.3271ZM78.9027 23.4071C78.2761 23.4071 77.7761 23.2671 77.4027 22.9871C77.0427 22.7204 76.7894 22.3871 76.6427 21.9871C76.4827 21.5871 76.4027 21.1871 76.4027 20.7871C76.4027 20.3871 76.4561 20.0804 76.5627 19.8671C76.6694 19.6538 76.7961 19.4938 76.9427 19.3871C77.1027 19.2804 77.2494 19.2004 77.3827 19.1471C77.5294 19.0938 77.6294 19.0404 77.6827 18.9871C78.0827 18.5471 78.4494 18.0871 78.7827 17.6071C79.1161 17.1271 79.4094 16.6204 79.6627 16.0871V15.8471C79.6627 15.3538 79.7427 15.0071 79.9027 14.8071C80.0761 14.5938 80.2561 14.4871 80.4427 14.4871C80.5494 14.4871 80.6294 14.5138 80.6827 14.5671C80.7361 14.6204 80.7627 14.6804 80.7627 14.7471C80.7627 14.8138 80.7427 14.9204 80.7027 15.0671C80.6627 15.2138 80.6427 15.4004 80.6427 15.6271C80.6427 16.0671 80.7294 16.5471 80.9027 17.0671C81.0761 17.5738 81.2494 18.1138 81.4227 18.6871C81.5961 19.2471 81.6827 19.8338 81.6827 20.4471C81.6827 20.6204 81.6694 20.7938 81.6427 20.9671C81.6294 21.1271 81.6027 21.2804 81.5627 21.4271C82.0294 21.3471 82.4694 21.1404 82.8827 20.8071C83.2961 20.4604 83.6961 19.9138 84.0827 19.1671L84.2627 19.3671C84.0094 20.1004 83.6294 20.6604 83.1227 21.0471C82.6161 21.4204 82.0627 21.6538 81.4627 21.7471C81.2494 22.3204 80.9094 22.7404 80.4427 23.0071C79.9894 23.2738 79.4761 23.4071 78.9027 23.4071ZM78.9427 22.7071C79.1027 22.7071 79.3161 22.6538 79.5827 22.5471C79.8494 22.4404 80.0561 22.1671 80.2027 21.7271C79.6427 21.6204 79.1427 21.4004 78.7027 21.0671C78.2761 20.7338 77.9561 20.4004 77.7427 20.0671C77.4494 20.0804 77.3027 20.3138 77.3027 20.7671C77.3027 21.2471 77.4427 21.6938 77.7227 22.1071C78.0161 22.5071 78.4227 22.7071 78.9427 22.7071ZM80.3027 21.4071C80.3294 21.2738 80.3494 21.1338 80.3627 20.9871C80.3761 20.8404 80.3827 20.6671 80.3827 20.4671C80.3827 19.8404 80.3027 19.2204 80.1427 18.6071C79.9961 17.9804 79.8694 17.3938 79.7627 16.8471C79.4561 17.3538 79.1294 17.8404 78.7827 18.3071C78.4494 18.7604 78.1294 19.1404 77.8227 19.4471C78.0227 19.8738 78.3294 20.2738 78.7427 20.6471C79.1694 21.0204 79.6894 21.2738 80.3027 21.4071Z" fill="#040017"/>
</svg>
