<svg width="37" height="37" viewBox="0 0 37 37" fill="none" xmlns="http://www.w3.org/2000/svg">
<path d="M13.875 27.75V7.70833L32.375 4.625V24.6667" stroke="white" stroke-width="3" stroke-linecap="round" stroke-linejoin="round"/>
<path d="M9.25 32.375C11.8043 32.375 13.875 30.3043 13.875 27.75C13.875 25.1957 11.8043 23.125 9.25 23.125C6.69568 23.125 4.625 25.1957 4.625 27.75C4.625 30.3043 6.69568 32.375 9.25 32.375Z" stroke="white" stroke-width="3" stroke-linecap="round" stroke-linejoin="round"/>
<path d="M27.75 29.2917C30.3043 29.2917 32.375 27.221 32.375 24.6667C32.375 22.1124 30.3043 20.0417 27.75 20.0417C25.1957 20.0417 23.125 22.1124 23.125 24.6667C23.125 27.221 25.1957 29.2917 27.75 29.2917Z" stroke="white" stroke-width="3" stroke-linecap="round" stroke-linejoin="round"/>
</svg>
